# xmcd
#
# Track frame offsets: 
#        150
#        15513
#        33071
#        48952
#        61283
#        73590
#        89126
#        106833
#        125817
#        137913
#
# Disc length: 2079 seconds
#
# Revision: 4
# Processed by: cddbd v1.5.2PL0 Copyright (c) Steve Scherf et al.
# Submitted via: ExactAudioCopy v1.0b1
#
DISCID=87081d0a
DTITLE=Daryle Singletary - Ain't It The Truth
DYEAR=1998
DGENRE=Country
TTITLE0=The Note
TTITLE1=Love Or The Lack Of
TTITLE2=That's Where You're Wrong
TTITLE3=A Thing Called Love
TTITLE4=I'd Live For You
TTITLE5=Miracle In The Making
TTITLE6=My Baby's Lovin'
TTITLE7=You Ain't Heard Nothin' Yet
TTITLE8=The Real Deal
TTITLE9=Ain't It The Truth
EXTD=
EXTT0=
EXTT1=
EXTT2=
EXTT3=
EXTT4=
EXTT5=
EXTT6=
EXTT7=
EXTT8=
EXTT9=
PLAYORDER=
